<?xml version="1.0" encoding="utf-8"?>
<!-- Generator: Adobe Illustrator 26.1.0, SVG Export Plug-In . SVG Version: 6.00 Build 0)  -->
<svg version="1.1" id="Capa_1" xmlns="http://www.w3.org/2000/svg" xmlns:xlink="http://www.w3.org/1999/xlink" x="0px" y="0px"
	 viewBox="0 0 600 311" style="enable-background:new 0 0 600 311;" xml:space="preserve">
<style type="text/css">
	.st0{fill:#003383;}
	.st1{fill:#5C8CDA;}
	.st2{fill:#C12A21;}
</style>
<g>
	<polygon class="st0" points="192.9,124.76 234.62,124.76 252.31,106.14 231.45,84.24 	"/>
	<polygon class="st0" points="301,54.91 280.19,33.01 262.75,51.33 283.59,73.23 	"/>
	<polygon class="st1" points="318.6,73.43 339.37,51.47 321.81,33.01 321.8,33 280.2,33 280.18,33 280.19,33.01 301,54.91 	"/>
	<polygon class="st1" points="349.87,106.34 367.38,124.76 409.1,124.76 370.68,84.38 	"/>
	<polygon class="st2" points="301.29,102.71 234.95,33 193,33 301.29,146.67 408.99,33 367.18,33 	"/>
	<g>
		<path class="st0" d="M85.39,267.85l-29.16-77.89h26.84l13.62,44.18c0.9,2.81,1.67,5.75,2.44,8.69c0.77-2.93,1.54-5.87,2.44-8.69
			l14.77-44.18h25.7l-29.16,77.89H85.39z"/>
		<path class="st0" d="M198.7,229.16c0-12.9-6.04-19.15-16.18-19.15c-10.02,0-16.18,6.26-16.18,19.15
			c0,12.38,6.16,18.51,16.18,18.51C192.67,247.68,198.7,241.54,198.7,229.16 M222.99,229.16c0,25.54-15.29,39.84-40.47,39.84
			c-25.18,0-40.47-14.29-40.47-39.84c0-25.92,15.28-40.47,40.47-40.47C207.7,188.69,222.99,203.25,222.99,229.16"/>
	</g>
	<polygon class="st0" points="233.81,267.85 233.81,189.96 257.83,189.96 257.83,246.14 291.49,246.14 291.49,267.85 	"/>
	<g>
		<path class="st0" d="M421.71,217.29c-1.15-3.19-1.8-5.87-2.44-8.17c-0.51,2.3-1.28,4.98-2.31,8.17l-6.3,18.64h17.21L421.71,217.29
			z M400.25,267.85h-25.44l28.14-77.89h32.76l28.13,77.89h-25.31l-3.86-11.62h-30.7L400.25,267.85z"/>
	</g>
	<polygon class="st0" points="524.07,267.85 494.64,228.39 494.64,267.85 470.63,267.85 470.63,189.96 492.33,189.96 521.76,229.42 
		521.76,189.96 545.77,189.96 545.77,267.85 	"/>
	<g>
		<path class="st0" d="M371.52,260.19c-12.2,6.26-21.84,8.81-33.66,8.81c-24.15,0-39.44-14.3-39.44-39.84
			c0-25.92,15.29-40.47,40.73-40.47c9.89,0,20.03,2.29,29.67,7.02l-7.07,18c-10.02-2.55-15.68-3.7-21.58-3.7
			c-11.31,0-17.47,6.26-17.47,19.16c0.13,11.62,6.42,18.51,16.31,18.51c8.09,0,13.62-1.15,24.79-5.23L371.52,260.19z"/>
	</g>
</g>
</svg>
